ply
format ascii 1.0
comment Created by Blender 2.79 (sub 0) - www.blender.org, source file: 'TreeTest.blend'
element vertex 305
property float x
property float y
property float z
property float nx
property float ny
property float nz
property uchar red
property uchar green
property uchar blue
element face 132
property list uchar uint vertex_indices
end_header
0.303676 0.303676 -1.000000 0.000000 -0.000000 -1.000000 255 129 87
-0.303676 -0.303676 -1.000000 0.000000 -0.000000 -1.000000 255 130 89
-0.303676 0.303676 -1.000000 0.000000 -0.000000 -1.000000 255 129 87
-0.084952 -0.485140 1.521336 -0.922131 0.000000 0.386877 255 128 86
0.211291 -0.208369 2.227439 -0.922131 0.000000 0.386877 255 128 86
-0.084952 0.086193 1.521336 -0.922131 0.000000 0.386877 255 128 86
0.303676 0.303676 1.000000 1.000000 0.000000 -0.000000 255 128 86
0.303676 -0.303676 -1.000000 1.000000 0.000000 -0.000000 255 128 86
0.303676 0.303676 -1.000000 1.000000 0.000000 -0.000000 255 128 86
0.303676 -0.303677 1.000000 -0.000000 -1.000000 -0.000000 255 128 86
-0.303676 -0.303676 -1.000000 -0.000000 -1.000000 -0.000000 255 128 86
0.303676 -0.303676 -1.000000 -0.000000 -1.000000 -0.000000 255 128 86
-0.303676 -0.303676 1.000000 -1.000000 0.000000 -0.000000 255 128 86
-0.303676 0.303676 -1.000000 -1.000000 0.000000 -0.000000 255 128 86
-0.303676 -0.303676 -1.000000 -1.000000 0.000000 -0.000000 255 128 86
0.303676 0.303676 -1.000000 0.000000 1.000000 0.000000 255 128 86
-0.303676 0.303676 1.000000 0.000000 1.000000 0.000000 255 128 86
0.303676 0.303676 1.000000 0.000000 1.000000 0.000000 255 128 86
0.265222 -0.505080 3.816115 0.000000 -0.243500 -0.969901 255 128 86
0.442869 -1.855300 4.155096 0.000000 -0.243500 -0.969901 255 128 86
0.404095 -1.855300 4.155096 0.000000 -0.243500 -0.969901 255 128 86
0.486382 0.086193 1.521336 0.000000 0.922913 0.385008 255 128 86
0.211291 -0.208369 2.227439 0.000000 0.922913 0.385008 255 128 86
0.733840 -0.208369 2.227439 0.000000 0.922913 0.385008 255 128 86
0.486381 -0.485141 1.521336 -0.000000 -0.944424 -0.328730 255 128 86
0.211291 -0.730918 2.227439 -0.000000 -0.944424 -0.328730 255 128 86
-0.084952 -0.485140 1.521336 -0.000000 -0.944424 -0.328730 255 128 86
0.486381 -0.485141 1.521336 0.943724 -0.000000 -0.330734 255 128 86
0.733840 -0.208369 2.227439 0.943724 -0.000000 -0.330734 255 128 86
0.733840 -0.730918 2.227439 0.943724 -0.000000 -0.330734 255 128 86
0.207069 -0.153977 4.393389 -0.963675 -0.000000 -0.267079 255 128 86
-0.326829 -0.069926 6.319801 -0.963675 -0.000000 -0.267079 255 128 86
-0.326829 0.005223 6.319801 -0.963675 -0.000000 -0.267079 255 128 86
0.589907 -0.180395 3.816115 0.995921 -0.000000 0.090229 255 128 86
0.560250 -0.458546 4.143466 0.995921 -0.000000 0.090229 255 128 86
0.589907 -0.505080 3.816115 0.995921 -0.000000 0.090229 255 128 86
0.265222 -0.180395 3.816115 -0.999424 0.000000 0.033928 255 128 86
0.276335 -0.458546 4.143466 -0.999424 0.000000 0.033928 255 128 86
0.276335 -0.174631 4.143466 -0.999424 0.000000 0.033928 255 128 86
0.265222 -0.180395 3.816115 0.000000 0.999845 -0.017606 255 128 86
0.560250 -0.174631 4.143466 0.000000 0.999845 -0.017606 255 128 86
0.589907 -0.180395 3.816115 0.000000 0.999845 -0.017606 255 128 86
-0.326829 0.005223 6.319801 0.000000 0.000000 1.000000 255 128 86
-0.251680 -0.069926 6.319801 0.000000 0.000000 1.000000 255 128 86
-0.251680 0.005223 6.319801 0.000000 0.000000 1.000000 255 128 86
0.207069 -0.153977 4.393389 0.000000 0.996603 -0.082360 255 128 86
-0.251680 0.005223 6.319801 0.000000 0.996603 -0.082360 255 128 86
0.467010 -0.153977 4.393389 0.000000 0.996603 -0.082360 255 128 86
0.207069 -0.413918 4.393390 0.000000 -0.984428 0.175786 255 128 86
-0.251680 -0.069926 6.319801 0.000000 -0.984428 0.175786 255 128 86
-0.326829 -0.069926 6.319801 0.000000 -0.984428 0.175786 255 128 86
0.467010 -0.153977 4.393389 0.936922 -0.000000 0.349539 255 128 86
-0.251680 -0.069926 6.319801 0.936922 -0.000000 0.349539 255 128 86
0.467010 -0.413918 4.393389 0.936922 -0.000000 0.349539 255 128 86
0.223832 -0.201864 2.596856 0.000000 0.999845 -0.017606 255 128 86
0.700371 -0.201864 2.596856 0.000000 0.999845 -0.017606 255 128 86
0.223832 -0.201864 2.596856 -0.999424 0.000000 0.033927 255 128 86
0.265222 -0.505080 3.816115 -0.999424 0.000000 0.033927 255 128 86
0.265222 -0.180395 3.816115 -0.999424 0.000000 0.033927 255 128 86
0.700371 -0.201864 2.596856 0.995921 -0.000000 0.090230 255 128 86
0.589907 -0.505080 3.816115 0.995921 -0.000000 0.090230 255 128 86
0.700371 -0.678403 2.596856 0.995921 -0.000000 0.090230 255 128 86
0.223832 -0.678403 2.596856 -0.000000 -0.990047 0.140739 255 128 86
0.589907 -0.505080 3.816115 -0.000000 -0.990047 0.140739 255 128 86
0.265222 -0.505080 3.816115 -0.000000 -0.990047 0.140739 255 128 86
0.404095 -1.855300 4.155096 0.000000 -0.990047 0.140738 255 128 86
0.439327 -1.849743 4.194188 0.000000 -0.990047 0.140738 255 128 86
0.405422 -1.849743 4.194188 0.000000 -0.990047 0.140738 255 128 86
0.276335 -0.458546 4.143466 -0.994794 -0.090605 0.046650 255 128 86
0.404095 -1.855300 4.155096 -0.994794 -0.090605 0.046650 255 128 86
0.405422 -1.849743 4.194188 -0.994794 -0.090605 0.046650 255 128 86
0.560250 -0.458546 4.143466 0.991407 -0.082471 0.101544 255 128 86
0.442869 -1.855300 4.155096 0.991407 -0.082471 0.101544 255 128 86
0.589907 -0.505080 3.816115 0.991407 -0.082471 0.101544 255 128 86
0.560250 -0.458546 4.143466 0.000000 0.036435 0.999336 255 128 86
0.405422 -1.849743 4.194188 0.000000 0.036435 0.999336 255 128 86
0.439327 -1.849743 4.194188 0.000000 0.036435 0.999336 255 128 86
0.211291 -0.730918 2.227439 -0.000000 -0.990047 0.140739 255 128 86
0.700371 -0.678403 2.596856 -0.000000 -0.990047 0.140739 255 128 86
0.733840 -0.208369 2.227439 0.995921 -0.000000 0.090229 255 128 86
0.700371 -0.678403 2.596856 0.995921 -0.000000 0.090229 255 128 86
0.733840 -0.730918 2.227439 0.995921 -0.000000 0.090229 255 128 86
0.211291 -0.208369 2.227439 -0.999424 0.000000 0.033927 255 128 86
0.223832 -0.678403 2.596856 -0.999424 0.000000 0.033927 255 128 86
0.223832 -0.201864 2.596856 -0.909377 0.415305 0.023558 255 128 86
0.771703 0.990073 2.732904 -0.909377 0.415305 0.023558 255 128 86
0.211291 -0.208369 2.227439 -0.909377 0.415305 0.023558 255 128 86
1.028445 0.841272 2.732904 -0.085125 -0.075308 -0.993520 255 128 86
1.586272 1.469067 2.637523 -0.085125 -0.075308 -0.993520 255 128 86
1.681700 1.361200 2.637523 -0.085125 -0.075308 -0.993520 255 128 86
0.700371 -0.201864 2.596856 -0.000000 -0.278733 0.960369 255 128 86
0.779717 0.989698 2.942689 -0.000000 -0.278733 0.960369 255 128 86
0.223832 -0.201864 2.596856 -0.000000 -0.278733 0.960369 255 128 86
0.733840 -0.208369 2.227439 0.216519 0.373583 -0.901973 255 128 86
0.771703 0.990073 2.732904 0.216519 0.373583 -0.901973 255 128 86
1.028445 0.841272 2.732904 0.216519 0.373583 -0.901973 255 128 86
0.700371 -0.201864 2.596856 0.947298 -0.308970 0.084634 255 128 86
1.028445 0.841272 2.732904 0.947298 -0.308970 0.084634 255 128 86
1.013853 0.853998 2.942689 0.947298 -0.308970 0.084634 255 128 86
1.586272 1.469067 2.637523 0.748854 0.662501 -0.017606 255 128 86
1.676930 1.369297 2.739338 0.748854 0.662501 -0.017606 255 128 86
1.681700 1.361200 2.637523 0.748854 0.662501 -0.017606 255 128 86
1.013853 0.853998 2.942689 0.120725 0.208299 0.970586 255 128 86
1.589905 1.467666 2.739338 0.120725 0.208299 0.970586 255 128 86
0.779717 0.989698 2.942689 0.120725 0.208299 0.970586 255 128 86
0.771703 0.990073 2.732904 -0.504065 0.863150 0.029860 255 128 86
1.589905 1.467666 2.739338 -0.504065 0.863150 0.029860 255 128 86
1.586272 1.469067 2.637523 -0.504065 0.863150 0.029860 255 128 86
1.028445 0.841272 2.732904 0.628271 -0.772704 0.090576 255 128 86
1.676930 1.369297 2.739338 0.628271 -0.772704 0.090576 255 128 86
1.013853 0.853998 2.942689 0.628271 -0.772704 0.090576 255 128 86
0.303676 -0.303677 1.000000 0.943724 -0.000000 -0.330734 255 128 86
0.486382 0.086193 1.521336 0.943724 -0.000000 -0.330734 255 128 86
0.303676 -0.303677 1.000000 -0.000000 -0.108156 -0.994134 255 128 86
-0.303677 -1.511140 1.131365 -0.000000 -0.108156 -0.994134 255 128 86
-0.303676 -0.303676 1.000000 -0.000000 -0.108156 -0.994134 255 128 86
0.303676 0.303676 1.000000 0.000000 0.922913 0.385008 255 128 86
-0.084952 0.086193 1.521336 0.000000 0.922913 0.385008 255 128 86
-0.303676 -0.303676 1.000000 -0.922131 0.000000 0.386877 255 128 86
-0.303676 0.303676 1.000000 -0.922131 0.000000 0.386877 255 128 86
-0.084952 -1.221151 1.601074 -0.000000 0.724240 0.689548 255 128 86
-0.313405 -2.100508 2.524673 -0.000000 0.724240 0.689548 255 128 86
0.486381 -1.221151 1.601074 -0.000000 0.724240 0.689548 255 128 86
-0.303676 -0.303676 1.000000 -0.915808 0.043258 0.399281 255 128 86
-0.084952 -1.221151 1.601074 -0.915808 0.043258 0.399281 255 128 86
-0.084952 -0.485140 1.521336 -0.915808 0.043258 0.399281 255 128 86
-0.084952 -0.485140 1.521336 0.000000 0.107708 0.994183 255 128 86
0.486381 -1.221151 1.601074 0.000000 0.107708 0.994183 255 128 86
0.486381 -0.485141 1.521336 0.000000 0.107708 0.994183 255 128 86
0.303676 -0.303677 1.000000 0.938883 -0.037231 -0.342217 255 128 86
0.486381 -1.221151 1.601074 0.938883 -0.037231 -0.342217 255 128 86
0.303676 -1.511140 1.131365 0.938883 -0.037231 -0.342217 255 128 86
-0.754184 -2.352151 2.347126 -0.915521 0.196176 0.351191 255 128 86
-0.646014 -3.177966 3.090416 -0.915521 0.196176 0.351191 255 128 86
-0.632156 -2.100508 2.524672 -0.915521 0.196176 0.351191 255 128 86
-0.084952 -1.221151 1.601074 -0.877786 0.474106 -0.068666 255 128 86
-0.754184 -2.352151 2.347126 -0.877786 0.474106 -0.068666 255 128 86
-0.632156 -2.100508 2.524672 -0.877786 0.474106 -0.068666 255 128 86
0.486381 -1.221151 1.601074 0.799054 -0.598395 0.058625 255 128 86
-0.415338 -2.352151 2.347126 0.799054 -0.598395 0.058625 255 128 86
0.303676 -1.511140 1.131365 0.799054 -0.598395 0.058625 255 128 86
-0.303677 -1.511140 1.131365 0.000000 -0.822404 -0.568904 255 128 86
-0.415338 -2.352151 2.347126 0.000000 -0.822404 -0.568904 255 128 86
-0.754184 -2.352151 2.347126 0.000000 -0.822404 -0.568904 255 128 86
-0.573327 -3.262328 3.030894 0.000000 -0.576502 0.817096 255 128 86
-0.646014 -3.177966 3.090416 0.000000 -0.576502 0.817096 255 128 86
-0.686924 -3.262328 3.030894 0.000000 -0.576502 0.817096 255 128 86
-0.415338 -2.352151 2.347126 0.948700 -0.277927 -0.150750 255 128 86
-0.539155 -3.177966 3.090416 0.948700 -0.277927 -0.150750 255 128 86
-0.573327 -3.262328 3.030894 0.948700 -0.277927 -0.150750 255 128 86
-0.754184 -2.352151 2.347126 0.000000 -0.600638 -0.799521 255 128 86
-0.573327 -3.262328 3.030894 0.000000 -0.600638 -0.799521 255 128 86
-0.686924 -3.262328 3.030894 0.000000 -0.600638 -0.799521 255 128 86
-0.632156 -2.100508 2.524672 -0.000001 0.464884 0.885372 255 128 86
-0.539155 -3.177966 3.090416 -0.000001 0.464884 0.885372 255 128 86
-0.313405 -2.100508 2.524673 -0.000001 0.464884 0.885372 255 128 86
0.560250 -0.174631 4.143466 0.936922 -0.000000 0.349539 255 128 86
0.560250 -0.458546 4.143466 0.936922 -0.000000 0.349539 255 128 86
0.276335 -0.458546 4.143466 0.000000 -0.984428 0.175785 255 128 86
0.467010 -0.413918 4.393389 0.000000 -0.984428 0.175785 255 128 86
0.207069 -0.413918 4.393390 0.000000 -0.984428 0.175785 255 128 86
0.276335 -0.174631 4.143466 0.000000 0.996603 -0.082360 255 128 86
0.560250 -0.174631 4.143466 0.000000 0.996603 -0.082360 255 128 86
0.207069 -0.413918 4.393390 -0.335181 0.093227 0.937530 255 128 86
-0.459179 -0.061913 4.120193 -0.335181 0.093227 0.937530 255 128 86
-0.562453 -0.295878 4.106536 -0.335181 0.093227 0.937530 255 128 86
-0.562453 -0.295878 4.106536 0.109165 -0.987475 0.113909 255 128 86
-1.153131 -0.282124 4.791848 0.109165 -0.987475 0.113909 255 128 86
-0.568633 -0.326255 3.849120 0.109165 -0.987475 0.113909 255 128 86
0.276335 -0.174631 4.143466 0.311286 0.099888 -0.945052 255 128 86
-0.568633 -0.326255 3.849120 0.311286 0.099888 -0.945052 255 128 86
-0.605343 -0.070712 3.864038 0.311286 0.099888 -0.945052 255 128 86
0.276335 -0.174631 4.143466 0.152580 0.987509 -0.039321 255 128 86
-0.459179 -0.061913 4.120193 0.152580 0.987509 -0.039321 255 128 86
0.207069 -0.153977 4.393389 0.152580 0.987509 -0.039321 255 128 86
0.276335 -0.458546 4.143466 -0.194090 -0.973671 0.119560 255 128 86
-0.562453 -0.295878 4.106536 -0.194090 -0.973671 0.119560 255 128 86
-0.568633 -0.326255 3.849120 -0.194090 -0.973671 0.119560 255 128 86
-1.153131 -0.263389 4.791848 -0.963677 -0.000000 -0.267069 255 128 86
-1.157701 -0.279179 4.808340 -0.963677 -0.000000 -0.267069 255 128 86
-1.157701 -0.262026 4.808340 -0.963677 -0.000000 -0.267069 255 128 86
-0.605343 -0.070712 3.864038 -0.861115 -0.000000 -0.508410 255 128 86
-1.153131 -0.282124 4.791848 -0.861115 -0.000000 -0.508410 255 128 86
-1.153131 -0.263389 4.791848 -0.861115 -0.000000 -0.508410 255 128 86
-0.562453 -0.295878 4.106536 0.762628 -0.000000 0.646837 255 128 86
-1.157701 -0.262026 4.808340 0.762628 -0.000000 0.646837 255 128 86
-1.157701 -0.279179 4.808340 0.762628 -0.000000 0.646837 255 128 86
-0.459179 -0.061913 4.120193 -0.442856 0.875119 -0.195049 255 128 86
-1.153131 -0.263389 4.791848 -0.442856 0.875119 -0.195049 255 128 86
-1.157701 -0.262026 4.808340 -0.442856 0.875119 -0.195049 255 128 86
0.303676 -0.303676 -1.000000 0.000000 0.000000 -1.000000 255 131 90
0.211291 -0.730918 2.227439 -0.922131 0.000000 0.386877 255 128 86
0.303676 -0.303677 1.000000 1.000000 -0.000000 0.000000 255 128 86
-0.303676 -0.303676 1.000000 -0.000000 -1.000000 0.000000 255 128 86
-0.303676 0.303676 1.000000 -1.000000 0.000000 -0.000000 255 128 86
-0.303676 0.303676 -1.000000 0.000000 1.000000 0.000000 255 128 86
0.589907 -0.505080 3.816115 -0.000000 -0.243500 -0.969901 255 128 86
0.733840 -0.730918 2.227439 -0.000000 -0.944424 -0.328730 255 128 86
0.207069 -0.413918 4.393390 -0.963675 -0.000000 -0.267079 255 128 86
0.560250 -0.174631 4.143466 0.995921 -0.000000 0.090229 255 128 86
0.265222 -0.505080 3.816115 -0.999424 0.000000 0.033928 255 128 86
0.276335 -0.174631 4.143466 0.000000 0.999845 -0.017606 255 128 86
-0.326829 -0.069926 6.319801 0.000000 -0.000000 1.000000 255 128 86
-0.326829 0.005223 6.319801 0.000000 0.996603 -0.082360 255 128 86
0.467010 -0.413918 4.393389 0.000000 -0.984428 0.175786 255 128 86
-0.251680 0.005223 6.319801 0.936922 -0.000000 0.349539 255 128 86
0.589907 -0.180395 3.816115 0.995921 -0.000000 0.090230 255 128 86
0.223832 -0.678403 2.596856 -0.000000 -0.990047 0.140740 255 128 86
0.700371 -0.678403 2.596856 -0.000000 -0.990047 0.140740 255 128 86
0.589907 -0.505080 3.816115 -0.000000 -0.990047 0.140740 255 128 86
0.442869 -1.855300 4.155096 0.000000 -0.990047 0.140738 255 128 86
0.265222 -0.505080 3.816115 -0.994794 -0.090605 0.046650 255 128 86
0.560250 -0.458546 4.143466 0.991407 -0.082471 0.101545 255 128 86
0.439327 -1.849743 4.194188 0.991407 -0.082471 0.101545 255 128 86
0.442869 -1.855300 4.155096 0.991407 -0.082471 0.101545 255 128 86
0.276335 -0.458546 4.143466 0.000000 0.036435 0.999336 255 128 86
0.733840 -0.730918 2.227439 -0.000000 -0.990047 0.140739 255 128 86
0.733840 -0.208369 2.227439 0.995921 -0.000000 0.090230 255 128 86
0.211291 -0.730918 2.227439 -0.999424 0.000000 0.033927 255 128 86
0.223832 -0.201864 2.596856 -0.909570 0.414032 0.035486 255 128 86
0.779717 0.989698 2.942689 -0.909570 0.414032 0.035486 255 128 86
0.771703 0.990073 2.732904 -0.909570 0.414032 0.035486 255 128 86
1.028445 0.841272 2.732904 -0.057736 -0.099618 -0.993349 255 128 86
0.771703 0.990073 2.732904 -0.057736 -0.099618 -0.993349 255 128 86
1.586272 1.469067 2.637523 -0.057736 -0.099618 -0.993349 255 128 86
0.700371 -0.201864 2.596856 -0.154122 -0.265923 0.951594 255 128 86
1.013853 0.853998 2.942689 -0.154122 -0.265923 0.951594 255 128 86
0.779717 0.989698 2.942689 -0.154122 -0.265923 0.951594 255 128 86
0.733840 -0.208369 2.227439 0.000000 0.388617 -0.921399 255 128 86
0.211291 -0.208369 2.227439 0.000000 0.388617 -0.921399 255 128 86
0.771703 0.990073 2.732904 0.000000 0.388617 -0.921399 255 128 86
0.700371 -0.201864 2.596856 0.946492 -0.309573 0.091202 255 128 86
0.733840 -0.208369 2.227439 0.946492 -0.309573 0.091202 255 128 86
1.028445 0.841272 2.732904 0.946492 -0.309573 0.091202 255 128 86
1.586272 1.469067 2.637523 0.748855 0.662500 -0.017608 255 128 86
1.589905 1.467666 2.739338 0.748855 0.662500 -0.017608 255 128 86
1.676930 1.369297 2.739338 0.748855 0.662500 -0.017608 255 128 86
1.013853 0.853998 2.942689 0.176609 0.156243 0.971801 255 128 86
1.676930 1.369297 2.739338 0.176609 0.156243 0.971801 255 128 86
1.589905 1.467666 2.739338 0.176609 0.156243 0.971801 255 128 86
0.771703 0.990073 2.732904 -0.504127 0.863379 0.020802 255 128 86
0.779717 0.989698 2.942689 -0.504127 0.863379 0.020802 255 128 86
1.589905 1.467666 2.739338 -0.504127 0.863379 0.020802 255 128 86
1.028445 0.841272 2.732904 0.628252 -0.772684 0.090874 255 128 86
1.681700 1.361200 2.637523 0.628252 -0.772684 0.090874 255 128 86
1.676930 1.369297 2.739338 0.628252 -0.772684 0.090874 255 128 86
0.303676 0.303676 1.000000 0.943724 -0.000000 -0.330734 255 128 86
0.303676 -1.511140 1.131365 0.000000 -0.108156 -0.994134 255 128 86
-0.303676 0.303676 1.000000 0.000000 0.922913 0.385008 255 128 86
-0.084952 -1.221151 1.601074 -0.000001 0.724240 0.689548 255 128 86
-0.632156 -2.100508 2.524672 -0.000001 0.724240 0.689548 255 128 86
-0.313405 -2.100508 2.524673 -0.000001 0.724240 0.689548 255 128 86
-0.303676 -0.303676 1.000000 -0.915677 0.043470 0.399557 255 128 86
-0.303677 -1.511140 1.131365 -0.915677 0.043470 0.399557 255 128 86
-0.084952 -1.221151 1.601074 -0.915677 0.043470 0.399557 255 128 86
-0.084952 -1.221151 1.601074 -0.000000 0.107708 0.994183 255 128 86
0.303676 -0.303677 1.000000 0.938981 -0.037049 -0.341967 255 128 86
0.486381 -0.485141 1.521336 0.938981 -0.037049 -0.341967 255 128 86
0.486381 -1.221151 1.601074 0.938981 -0.037049 -0.341967 255 128 86
-0.686924 -3.262328 3.030894 -0.915521 0.196176 0.351191 255 128 86
-0.084952 -1.221151 1.601074 -0.841231 0.537339 0.059985 255 128 86
-0.303677 -1.511140 1.131365 -0.841231 0.537339 0.059985 255 128 86
-0.754184 -2.352151 2.347126 -0.841231 0.537339 0.059985 255 128 86
0.486381 -1.221151 1.601074 0.829906 -0.504389 0.238426 255 128 86
-0.313405 -2.100508 2.524673 0.829906 -0.504389 0.238426 255 128 86
-0.415338 -2.352151 2.347126 0.829906 -0.504389 0.238426 255 128 86
0.303676 -1.511140 1.131365 -0.000000 -0.822404 -0.568904 255 128 86
-0.539155 -3.177966 3.090416 0.000000 -0.576502 0.817096 255 128 86
-0.415338 -2.352151 2.347126 0.948700 -0.277926 -0.150749 255 128 86
-0.313405 -2.100508 2.524673 0.948700 -0.277926 -0.150749 255 128 86
-0.539155 -3.177966 3.090416 0.948700 -0.277926 -0.150749 255 128 86
-0.415338 -2.352151 2.347126 -0.000000 -0.600638 -0.799521 255 128 86
-0.632156 -2.100508 2.524672 0.000000 0.464884 0.885372 255 128 86
-0.646014 -3.177966 3.090416 0.000000 0.464884 0.885372 255 128 86
-0.539155 -3.177966 3.090416 0.000000 0.464884 0.885372 255 128 86
0.276335 -0.458546 4.143466 -0.000000 -0.984429 0.175786 255 128 86
0.560250 -0.458546 4.143466 -0.000000 -0.984429 0.175786 255 128 86
0.467010 -0.413918 4.393389 -0.000000 -0.984429 0.175786 255 128 86
0.207069 -0.413918 4.393390 -0.379394 0.000002 0.925235 255 128 86
0.207069 -0.153977 4.393389 -0.379394 0.000002 0.925235 255 128 86
-0.459179 -0.061913 4.120193 -0.379394 0.000002 0.925235 255 128 86
-0.562453 -0.295878 4.106536 0.254088 -0.937487 0.237817 255 128 86
-1.157701 -0.279179 4.808340 0.254088 -0.937487 0.237817 255 128 86
-1.153131 -0.282124 4.791848 0.254088 -0.937487 0.237817 255 128 86
0.276335 -0.174631 4.143466 0.328963 0.000000 -0.944343 255 128 86
0.276335 -0.458546 4.143466 0.328963 0.000000 -0.944343 255 128 86
-0.568633 -0.326255 3.849120 0.328963 0.000000 -0.944343 255 128 86
0.276335 -0.174631 4.143466 0.154116 0.980539 -0.121621 255 128 86
-0.605343 -0.070712 3.864038 0.154116 0.980539 -0.121621 255 128 86
-0.459179 -0.061913 4.120193 0.154116 0.980539 -0.121621 255 128 86
0.276335 -0.458546 4.143466 -0.194100 -0.973607 0.120059 255 128 86
0.207069 -0.413918 4.393390 -0.194100 -0.973607 0.120059 255 128 86
-0.562453 -0.295878 4.106536 -0.194100 -0.973607 0.120059 255 128 86
-1.153131 -0.263389 4.791848 -0.963677 0.000000 -0.267069 255 255 255
-1.153131 -0.282124 4.791848 -0.963677 0.000000 -0.267069 255 255 255
-1.157701 -0.279179 4.808340 -0.963677 0.000000 -0.267069 255 255 255
-0.605343 -0.070712 3.864038 -0.848253 -0.091407 -0.521644 255 128 86
-0.568633 -0.326255 3.849120 -0.848253 -0.091407 -0.521644 255 128 86
-1.153131 -0.282124 4.791848 -0.848253 -0.091407 -0.521644 255 128 86
-0.562453 -0.295878 4.106536 0.706647 -0.347888 0.616136 255 128 86
-0.459179 -0.061913 4.120193 0.706647 -0.347888 0.616136 255 128 86
-1.157701 -0.262026 4.808340 0.706647 -0.347888 0.616136 255 128 86
-0.459179 -0.061913 4.120193 -0.203371 0.975617 0.082533 255 128 86
-0.605343 -0.070712 3.864038 -0.203371 0.975617 0.082533 255 128 86
-1.153131 -0.263389 4.791848 -0.203371 0.975617 0.082533 255 128 86
3 0 1 2
3 3 4 5
3 6 7 8
3 9 10 11
3 12 13 14
3 15 16 17
3 18 19 20
3 21 22 23
3 24 25 26
3 27 28 29
3 30 31 32
3 33 34 35
3 36 37 38
3 39 40 41
3 42 43 44
3 45 46 47
3 48 49 50
3 51 52 53
3 54 41 55
3 56 57 58
3 59 60 61
3 62 63 64
3 65 66 67
3 68 69 70
3 71 72 73
3 74 75 76
3 77 78 62
3 79 80 81
3 82 83 56
3 84 85 86
3 87 88 89
3 90 91 92
3 93 94 95
3 96 97 98
3 99 100 101
3 102 103 104
3 105 106 107
3 108 109 110
3 111 112 27
3 113 114 115
3 116 117 21
3 118 5 119
3 120 121 122
3 123 124 125
3 126 127 128
3 129 130 131
3 132 133 134
3 135 136 137
3 138 139 140
3 141 142 143
3 144 145 146
3 147 148 149
3 150 151 152
3 153 154 155
3 156 53 157
3 158 159 160
3 161 47 162
3 163 164 165
3 166 167 168
3 169 170 171
3 172 173 174
3 175 176 177
3 178 179 180
3 181 182 183
3 184 185 186
3 187 188 189
3 0 190 1
3 3 191 4
3 6 192 7
3 9 193 10
3 12 194 13
3 15 195 16
3 18 196 19
3 21 117 22
3 24 197 25
3 27 112 28
3 30 198 31
3 33 199 34
3 36 200 37
3 39 201 40
3 42 202 43
3 45 203 46
3 48 204 49
3 51 205 52
3 54 39 41
3 56 83 57
3 59 206 60
3 207 208 209
3 65 210 66
3 68 211 69
3 212 213 214
3 74 215 75
3 77 216 78
3 217 59 61
3 82 218 83
3 219 220 221
3 222 223 224
3 225 226 227
3 228 229 230
3 231 232 233
3 234 235 236
3 237 238 239
3 240 241 242
3 243 244 245
3 111 246 112
3 113 247 114
3 116 248 117
3 118 3 5
3 249 250 251
3 252 253 254
3 126 255 127
3 256 257 258
3 132 259 133
3 260 261 262
3 263 264 265
3 141 266 142
3 144 267 145
3 268 269 270
3 150 271 151
3 272 273 274
3 156 51 53
3 275 276 277
3 161 45 47
3 278 279 280
3 281 282 283
3 284 285 286
3 287 288 289
3 290 291 292
3 293 294 295
3 296 297 298
3 299 300 301
3 302 303 304
