ply
format ascii 1.0
comment Created by Blender 2.79 (sub 0) - www.blender.org, source file: 'FlipTest.blend'
element vertex 195
property float x
property float y
property float z
property float nx
property float ny
property float nz
property uchar red
property uchar green
property uchar blue
element face 104
property list uchar uint vertex_indices
end_header
1.000000 -1.000000 -1.000000 -0.000000 -0.000000 -1.000000 255 45 80
-1.000000 1.000000 -1.000000 -0.000000 -0.000000 -1.000000 255 43 31
1.000000 1.000000 -1.000000 -0.000000 -0.000000 -1.000000 255 41 0
-1.000000 -1.000000 1.000000 0.000000 0.000000 1.000000 248 41 10
0.227641 -0.460894 1.000000 0.000000 0.000000 1.000000 228 45 40
-0.227641 -0.460894 1.000000 0.000000 0.000000 1.000000 236 44 29
0.999999 -1.000001 1.000000 1.000000 -0.000001 0.000000 232 44 35
1.000000 0.750000 0.750000 1.000000 -0.000001 0.000000 190 53 100
1.000000 0.999999 1.000000 1.000000 -0.000001 0.000000 197 52 90
1.000000 -1.000000 -1.000000 -0.000000 -1.000000 -0.000000 235 63 7
-0.500000 -1.000000 -0.500000 -0.000000 -1.000000 -0.000000 201 103 18
-1.000000 -1.000000 -1.000000 -0.000000 -1.000000 -0.000000 215 85 14
-1.000000 -1.000000 -1.000000 -1.000000 0.000000 -0.000000 215 85 14
-1.000000 0.500000 -0.500000 -1.000000 0.000000 -0.000000 198 105 19
-1.000000 1.000000 -1.000000 -1.000000 0.000000 -0.000000 205 98 17
-1.000000 1.000000 -1.000000 0.000000 1.000000 0.000000 209 51 101
0.500000 1.000000 -0.500000 0.000000 1.000000 0.000000 178 55 117
1.000000 1.000000 -1.000000 0.000000 1.000000 0.000000 181 53 114
0.227641 -0.460894 1.000000 -0.000001 -0.890906 -0.454188 217 82 12
-0.261978 -0.544463 1.163924 -0.000001 -0.890906 -0.454188 216 83 13
-0.227641 -0.460894 1.000000 -0.000001 -0.890906 -0.454188 210 90 15
0.999999 -1.000001 1.000000 -0.000000 0.000000 1.000000 232 44 35
0.379056 0.371031 1.000000 -0.000000 0.000000 1.000000 218 48 57
-0.379056 0.371031 1.000000 0.000000 0.000000 1.000000 240 44 24
-1.000000 1.000000 1.000000 0.000000 0.000000 1.000000 252 41 5
1.000000 0.999999 1.000000 -0.000000 -0.000000 1.000000 197 52 90
-0.000000 0.645456 1.000000 -0.000000 -0.000000 1.000000 231 44 39
-0.436232 0.412946 1.163924 0.000000 0.000000 1.000000 246 43 14
-0.261978 -0.544463 1.163924 0.000000 0.000000 1.000000 243 44 20
0.436232 0.412946 1.163924 0.000000 0.000000 1.000000 225 46 46
0.227641 -0.460894 1.000000 0.943026 -0.171636 -0.285033 228 45 40
0.436232 0.412946 1.163924 0.943026 -0.171636 -0.285033 225 46 46
0.261977 -0.544464 1.163924 0.943026 -0.171636 -0.285033 235 44 29
-0.227641 -0.460894 1.000000 -0.943026 -0.171636 -0.285033 210 90 15
-0.436232 0.412946 1.163924 -0.943026 -0.171636 -0.285033 213 89 14
-0.379056 0.371031 1.000000 -0.943026 -0.171636 -0.285033 206 96 16
-0.000000 0.645456 1.000000 -0.542271 0.749024 -0.380664 255 41 0
-0.436232 0.412946 1.163924 -0.542271 0.749024 -0.380664 255 41 0
-0.000000 0.728765 1.163924 -0.542271 0.749024 -0.380664 255 41 0
-0.000000 0.645456 1.000000 0.542271 0.749024 -0.380664 231 44 39
0.436232 0.412946 1.163924 0.542271 0.749024 -0.380664 225 46 46
0.379056 0.371031 1.000000 0.542271 0.749024 -0.380664 218 48 57
-0.750000 1.000000 0.750000 -0.854808 -0.489975 -0.170962 255 43 27
-0.561454 1.134783 -0.579013 -0.854808 -0.489975 -0.170962 255 42 22
-0.500000 1.000000 -0.500000 -0.854808 -0.489975 -0.170962 255 42 20
-1.000000 -1.000000 1.000000 -0.000000 -1.000000 -0.000000 209 91 15
0.750000 -1.000000 0.750000 -0.000000 -1.000000 -0.000000 227 72 9
0.999999 -1.000001 1.000000 -0.000000 -1.000000 -0.000000 236 62 7
-0.500000 -1.000000 0.500000 -0.000000 -1.000000 0.000000 198 105 18
0.500000 -1.000000 -0.500000 -0.000000 -1.000000 -0.000000 217 82 13
0.750000 -1.000000 0.750000 -0.170961 0.489975 0.854808 255 41 0
-0.579013 -1.134782 0.561455 -0.170961 0.489975 0.854808 255 41 0
0.846571 -1.134783 0.846571 -0.170961 0.489975 0.854808 255 41 0
0.999999 -1.000001 1.000000 1.000000 -0.000000 0.000000 232 44 35
1.000000 -0.500000 -0.500000 1.000000 -0.000000 0.000000 189 54 103
1.000000 -0.500000 0.500000 1.000000 -0.000000 0.000000 206 49 76
1.000000 1.000000 -1.000000 1.000000 -0.000000 -0.000000 181 53 114
1.000000 0.750000 0.750000 1.000000 -0.000000 -0.000000 190 53 100
1.000000 0.500000 -0.500000 1.000000 -0.000000 -0.000000 176 55 120
1.000000 -1.000000 -1.000000 1.000000 -0.000000 0.000000 192 53 97
-1.000000 -0.750000 0.750000 0.489975 -0.854808 -0.170961 201 100 17
-1.134782 -0.561454 -0.579013 0.489975 -0.854808 -0.170961 202 101 18
-1.000000 -0.500000 -0.500000 0.489975 -0.854808 -0.170961 197 104 20
0.500000 1.000000 0.500000 0.000000 1.000000 0.000000 191 54 96
1.000000 0.999999 1.000000 0.000000 1.000000 0.000000 197 52 90
-0.750000 1.000000 0.750000 0.000000 1.000000 0.000000 245 44 42
-1.000000 1.000000 1.000000 0.000000 1.000000 0.000000 252 43 33
-0.500000 1.000000 -0.500000 0.000000 1.000000 0.000000 203 53 100
1.000000 -0.500000 -0.500000 -0.505732 -0.862691 -0.000000 255 41 0
1.134782 -0.579013 0.561455 -0.505732 -0.862691 -0.000000 255 41 0
1.000000 -0.500000 0.500000 -0.505732 -0.862691 -0.000000 255 41 0
-1.000000 -0.750000 0.750000 -1.000000 0.000000 -0.000000 201 100 17
-1.000000 -0.500000 -0.500000 -1.000000 0.000000 -0.000000 197 104 20
-1.000000 1.000000 1.000000 -1.000000 0.000000 0.000000 208 94 16
-1.000000 -1.000000 1.000000 -1.000000 0.000000 0.000000 209 91 15
-1.000000 0.500000 0.500000 -1.000000 0.000000 -0.000000 199 103 18
0.561454 -1.134782 -0.579013 -0.000000 -1.000000 -0.000000 222 78 11
-0.579013 -1.134782 0.561455 -0.000000 -1.000000 -0.000000 197 105 19
-0.579013 -1.134782 -0.579013 -0.000000 -1.000000 -0.000000 202 99 18
1.134782 -0.579013 0.561455 0.826945 -0.562284 0.000000 229 70 8
1.470640 -0.085071 -0.085071 0.826945 -0.562284 0.000000 229 72 9
1.470640 -0.085071 0.177277 0.826945 -0.562284 0.000000 229 71 9
0.579013 1.134782 0.561455 0.000000 1.000000 0.000000 193 54 96
-0.561454 1.134783 -0.579013 0.000000 1.000000 0.000000 207 51 98
-0.846571 1.134782 0.846571 0.000000 1.000000 0.000000 249 44 34
-1.134782 -0.561454 -0.579013 -1.000000 0.000000 -0.000000 202 101 18
-1.134782 0.579013 0.561455 -1.000000 0.000000 -0.000000 200 101 18
-1.134782 0.579013 -0.579013 -1.000000 0.000000 -0.000000 201 102 18
1.000000 0.750000 0.750000 -0.489975 -0.170961 0.854808 190 53 100
1.134782 -0.579013 0.561455 -0.489975 -0.170961 0.854808 210 49 68
1.134783 0.846571 0.846571 -0.489975 -0.170961 0.854808 189 53 101
-1.000000 0.500000 -0.500000 0.505732 0.862691 0.000000 255 41 0
-1.134782 0.579013 0.561455 0.505732 0.862691 0.000000 255 41 0
-1.000000 0.500000 0.500000 0.505732 0.862691 0.000000 255 41 0
-0.750000 1.000000 0.750000 0.170961 -0.489975 0.854808 243 43 17
0.579013 1.134782 0.561455 0.170961 -0.489975 0.854808 193 54 96
-0.846571 1.134782 0.846571 0.170961 -0.489975 0.854808 249 42 9
-1.000000 -0.750000 0.750000 0.489975 0.170961 0.854808 255 41 0
-1.134782 0.579013 0.561455 0.489975 0.170961 0.854808 255 41 0
-1.134783 -0.846571 0.846571 0.489975 0.170961 0.854808 255 41 0
-0.500000 -1.000000 -0.500000 0.000000 0.505732 -0.862691 201 103 18
0.561454 -1.134782 -0.579013 0.000000 0.505732 -0.862691 222 78 11
-0.579013 -1.134782 -0.579013 0.000000 0.505732 -0.862691 202 99 18
1.000000 -0.500000 -0.500000 -0.505732 0.000000 -0.862691 255 41 0
1.134782 0.561454 -0.579013 -0.505732 0.000000 -0.862691 255 41 0
1.134782 -0.579013 -0.579013 -0.505732 0.000000 -0.862691 255 41 0
0.750000 -1.000000 0.750000 0.854808 0.489975 -0.170961 255 42 1
0.561454 -1.134782 -0.579013 0.854808 0.489975 -0.170961 255 41 0
0.500000 -1.000000 -0.500000 0.854808 0.489975 -0.170961 255 41 0
0.500000 1.000000 -0.500000 -0.000000 -0.505732 -0.862691 255 41 2
-0.561454 1.134783 -0.579013 -0.000000 -0.505732 -0.862691 255 42 22
0.579013 1.134782 -0.579013 -0.000000 -0.505732 -0.862691 255 41 0
1.000000 0.750000 0.750000 -0.489975 0.854808 -0.170961 190 53 100
1.134782 0.561454 -0.579013 -0.489975 0.854808 -0.170961 175 55 121
1.000000 0.500000 -0.500000 -0.489975 0.854808 -0.170961 176 55 120
-1.000000 0.500000 -0.500000 0.505732 -0.000000 -0.862691 255 42 26
-1.134782 -0.561454 -0.579013 0.505732 -0.000000 -0.862691 255 41 0
-1.134782 0.579013 -0.579013 0.505732 -0.000000 -0.862691 255 43 28
-0.500000 -1.000000 -0.500000 -0.862691 0.505732 -0.000000 255 41 0
-0.579013 -1.134782 0.561455 -0.862691 0.505732 -0.000000 255 41 0
-0.500000 -1.000000 0.500000 -0.862691 0.505732 -0.000000 255 41 0
0.500000 1.000000 -0.500000 0.862691 -0.505732 -0.000000 178 55 117
0.579013 1.134782 0.561455 0.862691 -0.505732 -0.000000 193 54 96
0.500000 1.000000 0.500000 0.862691 -0.505732 -0.000000 191 54 96
1.470640 0.177277 -0.085071 1.000000 0.000000 0.000000 186 54 104
1.470640 -0.085071 0.177277 1.000000 0.000000 0.000000 194 53 94
1.470640 -0.085071 -0.085071 1.000000 0.000000 0.000000 191 53 98
1.134782 0.561454 -0.579013 0.826945 0.000000 -0.562283 178 55 124
1.470640 -0.085071 -0.085071 0.826945 0.000000 -0.562283 200 53 112
1.134782 -0.579013 -0.579013 0.826945 0.000000 -0.562283 218 53 145
1.134782 -0.579013 0.561455 0.815699 -0.113449 0.567243 210 49 68
1.470640 0.242864 0.242864 0.815699 -0.113449 0.567243 188 54 103
1.134783 0.846571 0.846571 0.815699 -0.113449 0.567243 189 53 101
1.134782 0.561454 -0.579013 0.815700 0.567242 -0.113449 175 55 121
1.470640 0.242864 0.242864 0.815700 0.567242 -0.113449 188 54 103
1.470640 0.177277 -0.085071 0.815700 0.567242 -0.113449 186 54 104
-1.000000 -1.000000 -1.000000 0.000000 -0.000000 -1.000000 255 41 0
-1.000000 -1.000000 1.000000 0.000000 0.000000 1.000000 205 91 25
0.999999 -1.000001 1.000000 0.000000 0.000000 1.000000 216 63 41
0.227641 -0.460894 1.000000 0.000000 0.000000 1.000000 197 81 50
1.000000 -0.500000 0.500000 1.000000 -0.000001 0.000000 206 49 76
0.261977 -0.544464 1.163924 -0.000001 -0.890906 -0.454188 225 75 10
0.261977 -0.544464 1.163924 -0.000000 0.000000 1.000000 235 44 29
-0.000000 0.728765 1.163924 0.000000 -0.000000 1.000000 236 44 28
0.227641 -0.460894 1.000000 0.943025 -0.171636 -0.285033 228 45 40
0.379056 0.371031 1.000000 0.943025 -0.171636 -0.285033 218 48 57
0.436232 0.412946 1.163924 0.943025 -0.171636 -0.285033 225 46 46
-0.261978 -0.544463 1.163924 -0.943026 -0.171636 -0.285033 216 83 13
-0.379056 0.371031 1.000000 -0.542271 0.749024 -0.380664 255 41 0
-0.000000 0.728765 1.163924 0.542271 0.749024 -0.380664 236 44 28
-0.750000 1.000000 0.750000 -0.854808 -0.489975 -0.170962 245 44 42
-0.846571 1.134782 0.846571 -0.854808 -0.489975 -0.170962 249 44 34
-0.561454 1.134783 -0.579013 -0.854808 -0.489975 -0.170962 207 51 98
1.000000 -1.000000 -1.000000 -0.000001 -1.000000 -0.000000 235 63 7
0.999999 -1.000001 1.000000 -0.000001 -1.000000 -0.000000 236 62 7
0.750000 -1.000000 0.750000 -0.000001 -1.000000 -0.000000 227 72 9
0.750000 -1.000000 0.750000 -0.170961 0.489975 0.854808 255 56 17
-0.500000 -1.000000 0.500000 -0.170961 0.489975 0.854808 255 41 0
1.000000 0.999999 1.000000 1.000000 -0.000000 -0.000000 197 52 90
-1.134783 -0.846571 0.846571 0.489975 -0.854808 -0.170961 206 97 17
-0.750000 1.000000 0.750000 0.000000 1.000000 0.000000 243 43 17
1.134782 -0.579013 -0.579013 -0.505732 -0.862691 -0.000000 255 41 0
0.846571 -1.134783 0.846571 -0.000000 -1.000000 -0.000000 233 66 8
1.134782 -0.579013 0.561455 0.826944 -0.562284 0.000000 229 70 8
1.134782 -0.579013 -0.579013 0.826944 -0.562284 0.000000 228 72 9
1.470640 -0.085071 -0.085071 0.826944 -0.562284 0.000000 229 72 9
0.579013 1.134782 -0.579013 0.000000 1.000000 0.000000 180 55 116
-1.134783 -0.846571 0.846571 -1.000000 0.000000 -0.000000 206 97 17
1.000000 -0.500000 0.500000 -0.489975 -0.170961 0.854808 206 49 76
-1.000000 0.500000 -0.500000 0.505732 0.862691 0.000000 255 42 26
-1.134782 0.579013 -0.579013 0.505732 0.862691 0.000000 255 44 30
-1.134782 0.579013 0.561455 0.505732 0.862691 0.000000 255 43 30
0.500000 1.000000 0.500000 0.170961 -0.489975 0.854808 191 54 96
-1.000000 0.500000 0.500000 0.489975 0.170961 0.854808 255 41 0
-0.500000 -1.000000 -0.500000 0.000000 0.505732 -0.862691 255 41 0
0.500000 -1.000000 -0.500000 0.000000 0.505732 -0.862691 255 41 0
0.561454 -1.134782 -0.579013 0.000000 0.505732 -0.862691 255 41 0
1.000000 0.500000 -0.500000 -0.505732 -0.000000 -0.862691 255 41 0
0.750000 -1.000000 0.750000 0.854808 0.489975 -0.170961 255 41 0
0.846571 -1.134783 0.846571 0.854808 0.489975 -0.170961 255 43 3
-0.500000 1.000000 -0.500000 -0.000000 -0.505732 -0.862691 255 42 20
1.134783 0.846571 0.846571 -0.489975 0.854808 -0.170961 189 53 101
-1.000000 -0.500000 -0.500000 0.505732 -0.000000 -0.862691 255 41 4
-0.579013 -1.134782 -0.579013 -0.862691 0.505732 -0.000000 255 41 0
0.579013 1.134782 -0.579013 0.862691 -0.505732 -0.000000 180 55 116
1.470640 0.177277 -0.085071 1.000000 -0.000001 -0.000000 186 54 104
1.470640 0.242864 0.242864 1.000000 -0.000001 -0.000000 188 54 103
1.470640 -0.085071 0.177277 1.000000 -0.000001 -0.000000 194 53 94
1.470640 0.177277 -0.085071 0.826945 0.000000 -0.562283 192 54 110
1.134782 -0.579013 0.561455 0.815699 -0.113449 0.567242 210 49 68
1.470640 -0.085071 0.177277 0.815699 -0.113449 0.567242 194 53 94
1.470640 0.242864 0.242864 0.815699 -0.113449 0.567242 188 54 103
1.134782 0.561454 -0.579013 0.815699 0.567242 -0.113449 175 55 121
1.134783 0.846571 0.846571 0.815699 0.567242 -0.113449 189 53 101
1.470640 0.242864 0.242864 0.815699 0.567242 -0.113449 188 54 103
3 0 1 2
3 3 4 5
3 6 7 8
3 9 10 11
3 12 13 14
3 15 16 17
3 18 19 20
3 21 22 4
3 3 23 24
3 25 24 26
3 27 28 29
3 30 31 32
3 33 34 35
3 36 37 38
3 39 40 41
3 42 43 44
3 45 46 47
3 11 48 45
3 9 46 49
3 50 51 52
3 53 54 55
3 56 57 58
3 59 58 54
3 60 61 62
3 17 63 64
3 64 65 66
3 15 65 67
3 68 69 70
3 12 71 72
3 73 71 74
3 14 75 73
3 76 77 78
3 79 80 81
3 82 83 84
3 85 86 87
3 88 89 90
3 91 92 93
3 94 95 96
3 97 98 99
3 100 101 102
3 103 104 105
3 106 107 108
3 109 110 111
3 112 113 114
3 115 116 117
3 118 119 120
3 121 122 123
3 124 125 126
3 127 128 129
3 130 131 132
3 133 134 135
3 0 136 1
3 137 138 139
3 6 140 7
3 9 49 10
3 12 72 13
3 15 67 16
3 18 141 19
3 21 25 22
3 3 5 23
3 24 23 26
3 26 22 25
3 142 29 28
3 143 27 29
3 144 145 146
3 33 147 34
3 36 148 37
3 39 149 40
3 150 151 152
3 45 48 46
3 11 10 48
3 153 154 155
3 156 157 51
3 53 59 54
3 56 158 57
3 59 56 58
3 60 159 61
3 17 16 63
3 64 63 160
3 15 66 65
3 68 161 69
3 12 74 71
3 73 75 71
3 14 13 75
3 76 162 77
3 163 164 165
3 82 166 83
3 85 167 86
3 88 168 89
3 169 170 171
3 94 172 95
3 97 173 98
3 174 175 176
3 103 177 104
3 178 179 107
3 109 180 110
3 112 181 113
3 115 182 116
3 118 183 119
3 121 184 122
3 185 186 187
3 127 188 128
3 189 190 191
3 192 193 194
