ply
format ascii 1.0
comment Created by Blender 2.79 (sub 0) - www.blender.org, source file: ''
element vertex 43
property float x
property float y
property float z
property float nx
property float ny
property float nz
property uchar red
property uchar green
property uchar blue
element face 22
property list uchar uint vertex_indices
end_header
1.000000 -1.000000 -1.000000 -0.000000 -0.000000 -1.000000 255 0 158
-1.000000 1.000000 -1.000000 -0.000000 -0.000000 -1.000000 255 0 158
1.000000 1.000000 -1.000000 -0.000000 -0.000000 -1.000000 255 0 158
0.999999 -1.000001 1.000000 0.000000 -0.000000 -1.000000 255 0 158
-1.221288 -1.221288 1.000000 0.000000 -0.000000 -1.000000 255 0 158
-1.000000 -1.000000 1.000000 0.000000 -0.000000 -1.000000 255 0 158
1.000000 0.999999 1.000000 1.000000 0.000000 -0.000000 255 0 158
1.000000 -1.000000 -1.000000 1.000000 0.000000 -0.000000 255 16 164
1.000000 1.000000 -1.000000 1.000000 0.000000 -0.000000 255 0 158
0.999999 -1.000001 1.000000 -0.000000 -1.000000 -0.000000 255 0 158
-1.000000 -1.000000 -1.000000 -0.000000 -1.000000 -0.000000 255 0 158
1.000000 -1.000000 -1.000000 -0.000000 -1.000000 -0.000000 255 0 158
-1.000000 -1.000000 -1.000000 -1.000000 0.000000 -0.000000 255 1 158
-1.000000 1.000000 1.000000 -1.000000 0.000000 -0.000000 255 2 159
-1.000000 1.000000 -1.000000 -1.000000 0.000000 -0.000000 255 0 158
1.000000 1.000000 -1.000000 0.000000 1.000000 0.000000 255 0 158
-1.000000 1.000000 1.000000 0.000000 1.000000 0.000000 255 0 158
1.000000 0.999999 1.000000 0.000000 1.000000 0.000000 255 0 158
1.221287 -1.221289 1.000000 0.667591 -0.000000 0.744528 255 111 0
1.221289 1.221287 1.000000 0.667591 -0.000000 0.744528 255 111 0
-0.000000 -0.000000 2.095084 0.667591 -0.000000 0.744528 255 111 0
1.000000 0.999999 1.000000 0.000000 0.000000 -1.000000 255 0 158
1.221287 -1.221289 1.000000 0.000000 0.000000 -1.000000 255 0 158
-1.000000 1.000000 1.000000 0.000000 -0.000000 -1.000000 255 0 158
-1.221288 1.221288 1.000000 0.000000 -0.000000 -1.000000 255 0 158
1.221289 1.221287 1.000000 -0.000000 -0.000000 -1.000000 255 0 158
-1.221288 1.221288 1.000000 -0.667591 0.000000 0.744528 255 111 0
-1.221288 -1.221288 1.000000 -0.667591 0.000000 0.744528 255 111 0
-0.000000 -0.000000 2.095084 -0.667591 0.000000 0.744528 255 111 0
1.221289 1.221287 1.000000 0.000000 0.667591 0.744528 255 111 0
-1.221288 1.221288 1.000000 0.000000 0.667591 0.744528 255 111 0
-0.000000 -0.000000 2.095084 0.000000 0.667591 0.744528 255 111 0
-1.221288 -1.221288 1.000000 -0.000000 -0.667591 0.744528 255 111 0
1.221287 -1.221289 1.000000 -0.000000 -0.667591 0.744528 255 111 0
-0.000000 -0.000000 2.095084 -0.000000 -0.667591 0.744528 255 111 0
-1.000000 -1.000000 -1.000000 0.000000 -0.000000 -1.000000 255 0 158
1.000000 0.999999 1.000000 1.000000 -0.000001 0.000000 255 0 158
0.999999 -1.000001 1.000000 1.000000 -0.000001 0.000000 255 0 158
1.000000 -1.000000 -1.000000 1.000000 -0.000001 0.000000 255 16 164
-1.000000 -1.000000 1.000000 -0.000000 -1.000000 0.000000 255 0 158
-1.000000 -1.000000 1.000000 -1.000000 0.000000 -0.000000 255 5 160
-1.000000 1.000000 -1.000000 0.000000 1.000000 0.000000 255 0 158
-1.000000 1.000000 1.000000 0.000000 0.000000 -1.000000 255 2 159
3 0 1 2
3 3 4 5
3 6 7 8
3 9 10 11
3 12 13 14
3 15 16 17
3 18 19 20
3 21 22 3
3 23 4 24
3 21 24 25
3 26 27 28
3 29 30 31
3 32 33 34
3 0 35 1
3 3 22 4
3 36 37 38
3 9 39 10
3 12 40 13
3 15 41 16
3 21 25 22
3 42 5 4
3 21 23 24